HIERARCHY
ROOT Hips
{
  OFFSET 196.326 95.9168 97.7182
  CHANNELS 6 Xposition Yposition Zposition Zrotation Xrotation Yrotation
  JOINT LeftUpLeg
  {
    OFFSET 8.64259 1.95398 -2.38835
    CHANNELS 3 Zrotation Xrotation Yrotation
    JOINT LeftLeg
    {
      OFFSET 43.7702 0 0
      CHANNELS 3 Zrotation Xrotation Yrotation
      JOINT LeftFoot
      {
        OFFSET 40.6238 0 0
        CHANNELS 3 Zrotation Xrotation Yrotation
        JOINT LeftToeBase
        {
          OFFSET 12.7242 0 0
          CHANNELS 3 Zrotation Xrotation Yrotation
          End Site
          {
            OFFSET 0 0 0
          }
        }
      }
    }
  }
  JOINT RightUpLeg
  {
    OFFSET -8.2249 1.95398 -2.59336
    CHANNELS 3 Zrotation Xrotation Yrotation
    JOINT RightLeg
    {
      OFFSET 43.5653 0 0
      CHANNELS 3 Zrotation Xrotation Yrotation
      JOINT RightFoot
      {
        OFFSET 40.6238 0 0
        CHANNELS 3 Zrotation Xrotation Yrotation
        JOINT RightToeBase
        {
          OFFSET 12.7242 0 0
          CHANNELS 3 Zrotation Xrotation Yrotation
          End Site
          {
            OFFSET 0 0 0
          }
        }
      }
    }
  }
  JOINT Spine
  {
    OFFSET 0.165834 0.87714 6.61349
    CHANNELS 3 Zrotation Xrotation Yrotation
    JOINT Spine1
    {
      OFFSET 7.38963 1.71661e-005 0
      CHANNELS 3 Zrotation Xrotation Yrotation
      JOINT Spine2
      {
        OFFSET 11.9445 1.14441e-005 0
        CHANNELS 3 Zrotation Xrotation Yrotation
        JOINT Spine3
        {
          OFFSET 14.7254 4.19617e-005 0
          CHANNELS 3 Zrotation Xrotation Yrotation
          JOINT Spine4
          {
            OFFSET 10.9679 0 0
            CHANNELS 3 Zrotation Xrotation Yrotation
            JOINT RightShoulder
            {
              OFFSET 2.46616 -1.6653 3.69651
              CHANNELS 3 Zrotation Xrotation Yrotation
              JOINT RightArm
              {
                OFFSET 13.0012 0 0
                CHANNELS 3 Zrotation Xrotation Yrotation
                JOINT RightForeArm
                {
                  OFFSET 28.7848 1.52588e-005 0
                  CHANNELS 3 Zrotation Xrotation Yrotation
                  JOINT RightHand
                  {
                    OFFSET 26.5688 1.52588e-005 0
                    CHANNELS 3 Zrotation Xrotation Yrotation
                    End Site
                    {
                      OFFSET 0 0 0
                    }
                  }
                }
              }
            }
            JOINT LeftShoulder
            {
              OFFSET 2.38034 -1.29275 -3.75231
              CHANNELS 3 Zrotation Xrotation Yrotation
              JOINT LeftArm
              {
                OFFSET 16.3182 6.10351e-005 0
                CHANNELS 3 Zrotation Xrotation Yrotation
                JOINT LeftForeArm
                {
                  OFFSET 27.0901 0 0
                  CHANNELS 3 Zrotation Xrotation Yrotation
                  JOINT LeftHand
                  {
                    OFFSET 24.5451 1.52588e-005 0
                    CHANNELS 3 Zrotation Xrotation Yrotation
                    End Site
                    {
                      OFFSET 0 0 0
                    }
                  }
                }
              }
            }
            JOINT Neck
            {
              OFFSET 5.0226 -0.0266342 0
              CHANNELS 3 Zrotation Xrotation Yrotation
              JOINT Head
              {
                OFFSET 6.69363 2.86102e-005 0
                CHANNELS 3 Zrotation Xrotation Yrotation
                End Site
                {
                  OFFSET 0 0 0
                }
              }
            }
          }
        }
      }
    }
  }
}
MOTION
Frames:	14
Frame Time:	0.0416667
-266.18 91.6045 -291.483 -85.4802 14.7265 -100.21 -174.123 7.91622 99.996 -42.3781 53.3321 2.71148 11.7802 -30.6589 -4.0592 125.712 35.9485 -66.4378 164.693 36.3978 75.649 -46.317 16.1147 9.2151 59.984 -1.52332 -0.79138 41.9804 1.5553 13.8556 -6.90429 4.44908 -90.0344 18.2967 -13.5802 2.54463 6.69447 -13.4549 3.15039 -16.4209 -13.7049 -1.73461 3.59177 -13.7049 -1.73461 48.2247 -35.1391 -170.028 28.8615 0.327863 69.6089 -12.2972 -11.2785 -44.5142 -15.1838 -1.18407 4.23337 -85.675 -52.5053 85.5683 -32.7519 5.52269 18.3386 -80.2401 -34.5161 -84.4748 -95.4785 -38.0458 31.7332 -43.2754 27.4197 33.8299 35.6395 35.3946 -1.93567 
-263.994 92.3336 -289.913 -82.8919 30.5119 -100.302 -176.452 5.36727 93.2457 -51.2559 34.607 7.27166 42.0495 -12.8081 4.69105 60.3103 27.1701 -17.0569 172.803 34.5526 82.8221 -34.274 16.3799 3.39372 55.7018 -1.24619 -0.549982 40.2365 1.32425 16.4838 -3.34333 6.09286 -89.9218 14.7534 -6.58152 1.09816 3.09869 -6.52671 1.38804 -19.5722 -6.60615 -0.940248 0.440417 -6.60615 -0.940251 65.849 -37.5424 -144.202 37.8674 5.53433 53.9158 -10.9128 -5.8405 -48.0136 -20.7678 -1.61605 4.22373 -119.313 -43.4881 33.3286 -11.6748 -18.9573 32.6428 -81.7737 -1.37752 -89.6373 -96.3062 -46.3164 42.0311 -24.9592 16.5871 16.5111 29.2094 18.8289 2.41742 
-260.006 93.7299 -285.158 -77.5184 43.734 -101.257 -173.236 2.65184 92.3298 -40.4017 24.978 0.902621 52.1904 -2.10405 8.41024 41.8979 13.8397 -5.00516 -178.897 32.3852 87.2993 -14.5904 8.73039 -0.501895 45.7577 1.72988 1.88391 23.5849 -1.83115 15.2897 -1.39646 6.64224 -89.4749 13.611 -2.51417 1.38622 1.94201 -2.45072 1.4956 -20.6144 -2.81443 0.565816 -0.601737 -2.81444 0.565804 71.9766 -46.4717 -129.342 38.3906 0.33211 45.3131 -7.29355 -3.72091 -52.4251 -18.8012 -0.895642 0.507151 -111.172 -40.123 42.8696 -10.2468 -15.7434 29.022 -11.4847 2.51565 -106.431 -62.8942 -9.25009 15.9421 -11.8235 9.47168 4.65119 20.7754 10.2319 2.94584 
-253.801 94.6178 -278.027 -73.067 46.2646 -105.175 -173.873 6.20782 89.002 -35.3208 22.1622 -0.392796 53.6291 0.262688 9.90899 54.3227 25.8207 -6.12517 -177.754 36.2896 86.2052 -11.9294 -1.78228 -0.884324 49.9601 2.67117 2.4238 13.054 -4.53964 18.3102 -0.888017 7.1606 -89.2109 12.5606 -1.3882 1.73654 0.889153 -1.31042 1.79594 -21.6468 -1.84588 1.23908 -1.63414 -1.84587 1.23908 80.3227 -49.2241 -115.727 38.3066 -5.51771 35.876 -6.74248 -3.68618 -56.8898 -18.0632 -0.756819 -0.189048 -102.06 -39.6966 56.5308 -16.3247 -6.30401 17.5805 9.97772 -4.61762 -108.943 27.0951 3.34612 10.0934 9.9531 9.21789 0.282505 5.37391 9.16437 1.78122 
-247.616 94.4108 -271.163 -73.5991 48.9641 -103.084 -173.828 10.3346 89.1338 -35.2587 22.1937 -0.74712 55.4709 1.9493 12.3893 55.5161 27.2363 -5.35458 -175.932 36.7542 87.9572 -21.6056 -0.52627 -2.81537 38.851 4.23189 4.55654 63.5119 5.60709 13.8211 -0.450477 7.4736 -89.3717 11.9286 -0.599605 1.31781 0.257074 -0.541004 1.34291 -22.2753 -0.967906 1.07673 -2.26268 -0.967912 1.07671 81.1546 -52.1883 -113.365 34.5758 -8.877 30.984 -7.22572 -3.18819 -62.763 -19.6687 -0.955193 0.629485 -98.5452 -39.876 62.2199 -21.7699 1.13054 13.9072 12.5143 -5.98175 -103.786 26.2341 1.99289 3.78854 16.6169 8.09629 5.31126 1.68426 6.18185 -2.4893 
-242.012 93.7623 -264.04 -75.8114 52.9778 -99.8695 -173.652 13.3873 89.0448 -34.3166 19.6401 -0.89912 54.1001 0.873926 11.3993 59.3167 30.7271 -5.83289 -177.53 37.3992 90.5107 -42.1433 4.75099 -2.88376 52.5601 0.813267 0.904596 61.0119 5.4793 15.4026 -0.0614123 7.6317 -89.5798 11.6092 0.0747154 0.829841 -0.0619727 0.111162 0.825741 -22.5951 -0.178139 0.813928 -2.58242 -0.178129 0.813926 80.1842 -51.2751 -115.12 31.623 -10.9667 25.0469 -9.27447 -3.88399 -66.3069 -22.8861 -1.28952 1.67676 -98.3594 -40.262 62.683 -26.6245 4.22119 16.2718 11.4543 -5.43418 -94.6043 26.6825 2.03413 3.81071 14.4032 9.02235 4.07676 2.21739 7.63985 -0.909774 
-236.006 92.3704 -257.226 -79.7903 55.216 -95.9887 -173.284 18.1357 88.8985 -40.0485 16.3446 -0.82445 57.6673 5.95016 16.3714 61.2778 30.6795 -10.4505 -179.198 35.4294 91.7612 -60.0032 10.5333 -3.75535 59.148 -1.98049 -1.10612 48.2842 2.79778 14.3273 0.22088 7.84399 -89.7362 11.1853 0.562294 0.469886 -0.485633 0.582428 0.444677 -23.0208 0.395082 0.617159 -3.00811 0.395079 0.617154 80.7791 -49.9506 -114.76 28.0231 -11.9654 17.2018 -12.9214 -3.10768 -70.3575 -24.0373 -1.54956 2.75807 -98.9774 -41.5168 62.2223 -30.6545 5.82739 17.5075 7.7355 -3.9983 -84.4807 28.5744 1.81975 2.57895 13.6706 9.88333 1.82289 1.45868 9.29622 1.84618 
-230.31 90.8012 -251.252 -80.5785 56.3526 -95.1819 -173.349 23.5857 88.7365 -43.2708 15.5179 -0.625916 61.6648 12.0112 21.8166 56.5938 25.0232 -14.9338 179.928 31.2926 91.3453 -69.8125 12.4355 -4.70776 56.5496 -2.57141 -1.48629 46.608 2.25095 12.2193 0.460843 7.82656 -89.7685 11.2193 1.02477 0.359938 -0.451308 1.0396 0.314477 -22.9885 0.8692 0.651303 -2.97587 0.8692 0.651285 81.1059 -48.0458 -115.016 25.8903 -11.3964 9.85727 -12.2313 -0.86 -75.2829 -25.5783 -1.89967 3.80663 -99.4754 -41.8624 61.5837 -34.8347 5.83084 19.5297 6.57958 -0.828441 -70.3462 29.3132 2.52404 4.83093 15.7954 9.24453 1.08471 -0.708459 8.79212 1.95987 
-224.776 90.0181 -246.012 -82.3544 55.3703 -94.5996 -173.254 27.4002 87.9931 -43.0759 11.2502 -0.610367 64.0904 13.0553 20.0327 52.665 20.0402 -21.7299 178.743 23.0618 89.1581 -72.1255 12.0332 -5.1716 52.5555 -2.1119 -1.20374 46.8447 2.2406 11.6672 0.532811 7.73102 -89.6024 11.4081 1.2458 0.666209 -0.262348 1.27392 0.610725 -22.7994 0.987997 1.00984 -2.78678 0.987998 1.00983 81.4306 -47.4728 -114.749 24.1132 -11.3133 5.23378 -16.527 -1.24728 -79.0381 -26.2425 -1.75712 3.16696 -99.4629 -41.0213 61.2436 -39.5193 8.47639 24.4365 1.95595 -1.23255 -61.0823 32.411 2.43416 3.67825 15.7248 7.75079 -1.23142 -1.51262 8.00757 3.10872 
-218.951 91.2988 -240.922 -86.3936 52.6709 -91.5676 -174.601 27.4906 88.779 -36.6839 14.445 -0.329233 60.4878 8.19898 17.304 44.0126 13.4564 -22.6625 175.922 11.1196 87.2392 -64.8532 11.5143 -4.36584 48.4317 -0.586455 -0.0431484 42.1673 1.58475 13.6012 0.715437 7.83848 -89.5962 11.1929 1.61164 0.644703 -0.477234 1.63844 0.573131 -23.017 1.34338 1.09932 -3.00436 1.34338 1.09931 83.0129 -45.9572 -112.894 24.8875 -11.5446 3.22072 -17.572 0.591244 -84.1428 -25.4599 -1.64081 2.86006 -99.4917 -40.8756 61.1379 -43.1163 10.2114 30.4469 0.243045 -2.10434 -64.1194 34.9807 2.96044 4.64614 14.2977 5.30915 -1.51362 -1.14195 5.70952 3.0164 
-212.846 93.9948 -235.654 -83.3935 50.9916 -93.6637 -175.241 25.9378 90.6315 -17.5064 18.3006 -0.609198 48.6527 -3.92429 9.06076 34.8839 6.69655 -22.1555 176.158 3.28572 87.684 -51.544 9.83985 -3.9505 48.8481 0.456327 0.7685 34.5557 0.177105 13.5048 1.07513 7.58035 -89.6414 11.7103 2.30675 0.47369 0.0413518 2.32537 0.371649 -22.5068 2.0577 1.14531 -2.49418 2.05769 1.14531 83.3448 -45.6161 -112.501 24.3425 -13.227 4.08444 -19.9835 2.36429 -88.1468 -26.2863 -1.76016 3.22078 -97.0475 -39.8913 64.6512 -45.7785 11.7931 32.624 -0.458702 -2.38937 -66.3266 35.8857 2.66245 3.55593 13.1045 3.00415 -0.159014 -1.1025 3.06444 1.85861 
-206.275 96.591 -229.927 -78.7931 49.2755 -95.8606 -174.398 27.9982 92.8173 -5.00812 19.657 -1.78519 42.6443 -11.3305 -0.0965274 29.2253 1.34934 -8.47442 178.173 1.11747 90.5976 -38.709 4.40916 -3.6254 44.5783 2.00308 2.17092 31.3442 -0.439888 15.4058 1.22816 7.25697 -89.855 12.3628 2.50957 0.00596516 0.694263 2.50739 -0.104573 -21.8591 2.39169 0.760353 -1.84643 2.39166 0.760344 84.1424 -45.04 -111.457 23.9792 -17.6835 5.30806 -22.4455 4.82312 -90.5091 -24.1455 -2.17481 6.09839 -95.3123 -40.0224 67.5365 -46.4691 9.22127 33.5325 0.0368402 -2.95907 -70.4858 36.2142 2.7994 3.87236 13.8579 1.97939 2.29765 -2.59318 1.3296 -0.0178174 
-199.499 97.5004 -224.118 -72.5917 47.7743 -100.295 -174.704 31.601 93.4264 -6.9781 19.1125 -1.73172 46.6663 -7.47571 4.2876 41.1924 13.5417 -1.89952 -179.716 3.53824 92.2866 -31.7611 -1.34399 -3.9055 45.9898 2.19769 2.21164 40.377 1.14409 10.9747 1.18626 6.91238 -89.8166 13.0513 2.44295 0.067158 1.38271 2.44353 -0.0405 -21.1694 2.30975 0.798654 -1.15677 2.30978 0.798654 84.4877 -45.1788 -110.858 25.2881 -18.7822 6.62074 -23.0262 5.07545 -90.9729 -20.4134 -1.80154 5.74889 -95.1832 -40.047 67.7564 -45.3429 4.19694 33.1473 0.160204 -3.71915 -75.7568 36.6101 2.49861 2.93624 17.1506 2.26916 1.29425 -4.22231 1.8611 1.57576 
-192.1 97.1581 -217.457 -75.3393 46.9856 -98.7265 -174.837 32.2339 92.9594 -23.9359 17.772 -0.818718 50.5698 -3.60996 8.88918 49.5678 23.2187 1.26034 -179.238 5.60263 93.1916 -31.6642 -0.063572 -3.82638 48.9478 1.60089 1.59094 41.5854 1.42538 12.1449 1.01644 7.22389 -89.8026 12.4271 2.11362 0.153945 0.757859 2.11835 0.0607164 -21.7897 1.96959 0.7823 -1.77701 1.96959 0.782293 83.5891 -46.7836 -111.685 25.9822 -17.8529 9.3122 -21.7961 2.99667 -87.3426 -20.755 -1.57036 4.21962 -96.6082 -41.631 66.04 -41.9526 2.16941 30.0465 2.91904 -2.96643 -78.7875 37.5257 2.85919 3.74857 19.3114 2.67498 1.17365 -4.33016 2.26439 1.82812 
